<svg xmlns="http://www.w3.org/2000/svg" viewBox="0 0 326.49 326.49"><defs><style>.cls-1{fill:#e73446;}.cls-2{fill:#fff;}</style></defs><g id="WERBUNG"><g id="_BG-2" data-name="_BG"><rect class="cls-1" width="326.49" height="326.49" rx="30"/></g><g id="ICON-2" data-name="ICON"><path class="cls-2" d="M105.58,186.44H39.74V120.6h65.84Zm-48.84-17H88.58V137.6H56.74Z"/><path class="cls-2" d="M211.35,238,88.58,183.46V123.57L211.35,69ZM105.58,172.42l88.77,39.45V95.17l-88.77,39.45Z"/><rect class="cls-2" x="46.6" y="169.44" width="28.82" height="83.46"/><rect class="cls-2" x="64.33" y="169.44" width="28.82" height="48.01"/><path class="cls-2" d="M222.81,186.44v-17a15.92,15.92,0,0,0,0-31.84v-17a32.92,32.92,0,0,1,0,65.84Z"/><path class="cls-2" d="M222.81,217.45v-17a46.93,46.93,0,1,0,0-93.86v-17a63.93,63.93,0,1,1,0,127.86Z"/></g></g></svg>