<?xml version="1.0" encoding="UTF-8" standalone="no"?>
<svg
   width="98.407997"
   height="34.999901"
   viewBox="0 0 98.407997 34.999901"
   fill="none"
   version="1.1"
   id="svg10"
   sodipodi:docname="WirLernenOnline-Acronym-Negative.svg"
   inkscape:version="1.1 (c4e8f9ed74, 2021-05-24)"
   xmlns:inkscape="http://www.inkscape.org/namespaces/inkscape"
   xmlns:sodipodi="http://sodipodi.sourceforge.net/DTD/sodipodi-0.dtd"
   xmlns="http://www.w3.org/2000/svg"
   xmlns:svg="http://www.w3.org/2000/svg">
  <defs
     id="defs14" />
  <sodipodi:namedview
     id="namedview12"
     pagecolor="#ffffff"
     bordercolor="#666666"
     borderopacity="1.0"
     inkscape:pageshadow="2"
     inkscape:pageopacity="0.0"
     inkscape:pagecheckerboard="0"
     showgrid="false"
     fit-margin-top="0"
     fit-margin-left="0"
     fit-margin-right="0"
     fit-margin-bottom="0"
     inkscape:zoom="7.0223464"
     inkscape:cx="4.0584726"
     inkscape:cy="17.444312"
     inkscape:window-width="2560"
     inkscape:window-height="1403"
     inkscape:window-x="0"
     inkscape:window-y="0"
     inkscape:window-maximized="1"
     inkscape:current-layer="svg10" />
  <path
     d="M 95.977,8.4932 C 94.363,5.85 92.096,3.7535 89.24,2.2621 86.366,0.7612 83.07,0 79.445,0 75.819,0 72.523,0.7612 69.649,2.2621 66.793,3.7535 64.526,5.85 62.912,8.4932 c -1.613,2.6415 -2.431,5.6718 -2.431,9.0069 0,2.7083 0.539,5.2151 1.606,7.4765 h 11.398 c -0.692,-0.6599 -1.283,-1.4457 -1.764,-2.3507 -0.779,-1.464 -1.174,-3.1889 -1.174,-5.1258 0,-1.9368 0.395,-3.6617 1.174,-5.1261 0.787,-1.4798 1.866,-2.6425 3.207,-3.4546 1.343,-0.814 2.863,-1.2264 4.517,-1.2264 1.654,0 3.173,0.4128 4.517,1.2264 1.341,0.8121 2.42,1.9748 3.207,3.455 0.779,1.4654 1.174,3.1899 1.174,5.1257 0,1.9359 -0.395,3.6604 -1.174,5.1258 -0.787,1.4802 -1.866,2.6429 -3.207,3.455 -1.343,0.8136 -2.863,1.226 -4.517,1.226 -1.215,0 -2.358,-0.2229 -3.411,-0.6631 v 8.1178 c 1.101,0.1585 2.238,0.2383 3.411,0.2383 3.625,0 6.921,-0.7608 9.796,-2.2613 2.855,-1.4915 5.122,-3.588 6.736,-6.2312 1.614,-2.6414 2.431,-5.6718 2.431,-9.0069 0,-3.3351 -0.817,-6.3658 -2.431,-9.0073 z"
     fill="#ea4b71"
     id="path4" />
  <path
     d="M 73.825,27.1347 H 58.1219 V 0.8287 H 49.0074 V 34.2135 H 73.825 Z"
     fill="#f4f4f4"
     id="path6" />
  <path
     d="M 40.6926,23.4616 33.8369,0.8287 H 24.3126 L 17.0663,23.1724 10.2135,0.8287 H 0 L 10.685,34.1994 H 22.0343 L 28.7778,13.018 35.1816,34.1994 H 46.52 V 5.2667"
     fill="#f4f4f4"
     id="path8" />
</svg>
