<svg width="24" height="24" viewBox="0 0 24 24" fill="none" xmlns="http://www.w3.org/2000/svg">
  <path
    d="m 18.695373,3 c -1.80801,0 -3.537001,0.3367715 -5.125952,0.9505453 -0.05013,0.019368 -0.09027,0.057933 -0.11133,0.106956 l -5.4e-4,0.0013 -0.0014,0.00365 -0.0059,0.014049 c -0.0051,0.01224 -0.01287,0.030231 -0.02259,0.053379 -0.01953,0.04626 -0.04743,0.1131121 -0.08136,0.1956872 -0.06801,0.165078 -0.160168,0.3934083 -0.257009,0.6462277 -0.132389,0.3457984 -0.27693,0.7460199 -0.378989,1.0944284 L 12.09927,5.22555 C 11.919719,4.9784726 11.57592,4.9023955 11.308439,5.0654487 7.3293039,7.4917348 4.6612173,11.820282 4.6012053,16.769747 c -0.6432215,1.020872 -1.1747525,2.083775 -1.5572797,3.180876 -0.1440451,0.41319 0.077805,0.86355 0.4955042,1.00593 0.417663,0.142471 0.8730453,-0.07695 1.0170544,-0.48996 0.941022,-2.699014 2.9400399,-5.264467 5.3884818,-7.516449 1.868464,-1.718643 4.028195,-3.146603 6.270636,-4.3407877 0.291781,-0.1553944 0.655651,-0.047448 0.812791,0.2411103 0.15705,0.2885944 0.04788,0.6484424 -0.243901,0.8038364 -2.10438,1.120717 -4.448881,2.68069 -6.463983,4.534152 -1.6603295,1.527211 -3.0731861,3.231544 -3.9564106,5.031187 h 0.5407382 c 2.6120174,0 5.0587144,-0.702902 7.1565254,-1.927983 0.40986,-0.239311 0.3645,-0.815762 -0.04564,-1.017363 l -0.86355,-0.42462 c 0.601831,-0.05157 1.28745,-0.14742 1.885321,-0.2421 0.531899,-0.08424 1.06272,-0.17595 1.59111,-0.27963 0.0378,-0.0075 0.07272,-0.02556 0.10035,-0.0522 C 19.363169,12.743055 21,9.200138 21,5.2793908 21,4.8159262 20.977143,4.3576546 20.932409,3.9056651 20.888403,3.4610165 20.533893,3.1103222 20.084253,3.0668071 19.627232,3.022617 19.163913,3 18.695373,3 Z" fill="currentColor"
  />
</svg>
