<?xml version="1.0" encoding="UTF-8" standalone="no"?>
<svg
   width="28"
   height="22"
   viewBox="0 0 28 22"
   version="1.1"
   id="svg16"
   xmlns="http://www.w3.org/2000/svg"
   xmlns:svg="http://www.w3.org/2000/svg">
  <path
     d="m 17.695373,2.5 c -1.80801,0 -3.537001,0.3367715 -5.125952,0.9505453 -0.05013,0.019368 -0.09027,0.057933 -0.11133,0.1069561 l -5.4e-4,0.0013 -0.0014,0.00364 -0.0059,0.014049 c -0.0051,0.01224 -0.01287,0.030231 -0.02259,0.053379 -0.01953,0.04626 -0.04743,0.1131121 -0.08136,0.1956872 -0.06801,0.165078 -0.160168,0.3934083 -0.257009,0.6462277 -0.132389,0.3457984 -0.27693,0.7460199 -0.378989,1.0944284 L 11.09927,4.7255499 C 10.919719,4.4784726 10.57592,4.4023955 10.308439,4.5654487 6.3293039,6.9917348 3.6612173,11.320282 3.6012053,16.269747 c -0.6432214,1.020872 -1.1747525,2.083774 -1.5572797,3.180876 -0.1440451,0.41319 0.077805,0.86355 0.4955042,1.00593 0.4176631,0.142471 0.8730453,-0.07695 1.0170544,-0.48996 0.941022,-2.699014 2.9400399,-5.264467 5.3884814,-7.516449 1.8684644,-1.718643 4.0281954,-3.146603 6.2706364,-4.3407877 0.291781,-0.1553944 0.655651,-0.047448 0.812791,0.2411103 0.15705,0.2885943 0.04788,0.6484421 -0.243901,0.8038362 -2.10438,1.1207172 -4.448881,2.6806892 -6.4639827,4.5341522 -1.6603297,1.527211 -3.0731864,3.231544 -3.9564108,5.031187 h 0.5407382 c 2.6120176,0 5.0587143,-0.702902 7.1565253,-1.927983 0.40986,-0.239311 0.3645,-0.815762 -0.04564,-1.017363 l -0.86355,-0.42462 c 0.601831,-0.05157 1.28745,-0.14742 1.885321,-0.2421 0.531899,-0.08424 1.06272,-0.17595 1.59111,-0.27963 0.0378,-0.0075 0.07272,-0.02556 0.100351,-0.0522 C 18.363169,12.243055 20,8.7001378 20,4.7793908 20,4.3159262 19.977144,3.8576546 19.932409,3.4056651 19.888404,2.9610165 19.533894,2.6103222 19.084254,2.5668071 18.627233,2.522617 18.163914,2.5 17.695373,2.5 Z"
     id="path14"
  />
</svg>
