<svg xmlns="http://www.w3.org/2000/svg" width="14.763" height="20" viewBox="0 0 14.763 20">
  <g id="Gruppe_128" data-name="Gruppe 128" transform="translate(-67)">
    <path id="Pfad_60" data-name="Pfad 60" d="M168.607,107.973a3.361,3.361,0,1,0,3.361,3.361A3.364,3.364,0,0,0,168.607,107.973Z" transform="translate(-94.225 -103.636)"/>
    <path id="Pfad_61" data-name="Pfad 61" d="M81.763,10.16l-1.075-2.4,1.075-2.4L79.484,4.054l-.54-2.572-2.613.281L74.382,0,72.433,1.763,69.82,1.482l-.54,2.572L67,5.363l1.075,2.4L67,10.16l2.279,1.309.293,1.393-2.433,5.169,2.539.033L71.322,20l2.391-5.082.668.6.668-.6L77.441,20l1.644-1.935,2.539-.033-2.433-5.169.293-1.393Zm-7.381,2.317A4.716,4.716,0,1,1,79.1,7.761,4.721,4.721,0,0,1,74.382,12.477Z"/>
  </g>
</svg>
