<?xml version="1.0" encoding="UTF-8" standalone="no"?>
<svg viewBox="0 0 326.49 326.49" version="1.1" id="svg13" sodipodi:docname="price.svg" inkscape:version="1.1.1 (3bf5ae0d25, 2021-09-20)"
   xmlns:inkscape="http://www.inkscape.org/namespaces/inkscape"
   xmlns:sodipodi="http://sodipodi.sourceforge.net/DTD/sodipodi-0.dtd"
   xmlns="http://www.w3.org/2000/svg"
   xmlns:svg="http://www.w3.org/2000/svg">
   <defs id="defs4">
      <style id="style2">
         .cls-2 { fill:#fff; }
      </style>
   </defs>
   <g id="KOSTEN">
      <g id="_BG-6" data-name="_BG">
         <rect width="326.49" height="326.49" rx="30" id="rect6" />
      </g>
      <g id="ICON-5" data-name="ICON">
         <path class="cls-2" d="M241.2,216.5l16.34,16.08c-16.08,18.37-40.32,28.07-68.14,28.07-44.91,0-80.64-26.8-91.36-66.61H69V179.75H95.49c-.25-3.31-.51-6.89-.51-10.46s.26-7.14.51-10.46H69V144.54H98c10.72-39.81,46.45-66.61,91.36-66.61,27.82,0,52.06,9.44,68.14,27.82L241.2,121.82c-13.78-14.54-30.87-21.17-50.52-21.17-31.39,0-56.14,17.6-65.59,43.89H206v14.29H121.52a72.36,72.36,0,0,0,0,20.92H206V194h-80.9c9.45,26.29,34.2,43.9,65.59,43.9C210.33,237.94,227.42,231.05,241.2,216.5Z" id="path9" />
      </g>
   </g>
</svg>
